<svg xmlns="http://www.w3.org/2000/svg" viewBox="0 0 420 420"><g opacity="0"><animate attributeName="opacity" calcMode="discrete" repeatCount="indefinite" dur="3.000s" keyTimes="0.0000;0.0278;0.0556;0.0833;0.1111;0.1389;0.1667;0.1944;0.2222;0.2500;0.2778;0.3056;0.3333;0.3611;0.3889;0.4167;0.4444;0.4722;0.5000;0.5278;0.5556;0.5833;0.6111;0.6389;0.6667;0.6944;0.7222;0.7500;0.7778;0.8056;0.8333;0.8611;0.8889;0.9167;0.9444;0.9722" values="1;0;0;0;0;0;0;0;0;0;0;0;0;0;0;0;0;0;0;0;0;0;0;0;0;0;0;0;0;0;0;0;0;0;0;0"/><path d="m-89.4-64.2-13.2 22.1 39.3-54zm178.8 0L63.3-96.1l39.3 54zM0 105.3l-37 4.2h74zm93.9-39-28.6 12-30.1 31.8zm-129.1 43.8-30.1-31.8-28.6-12zM-112.9 0l5.6 26.8 5.4-70.7zm225.8 0-11-43.9 5.4 70.7zm-5 25L64.6 79l28.7-11.9zM-64.6 79l-43.3-54 14.6 42.1zm130.8-1.1L-1 105.6l37.1 4.2zM1 105.6l-67.2-27.7 30.1 31.9zM-42.1-74.2.8-114.1l-65.6 18.6zm84.2 0 22.7-21.3-65.6-18.6zm-144.8 31.9 61.4-32.5L-64-96zm144-32.5 61.4 32.5L64-96zM-107.9 26.6-69 4.4l-33.3-48.2zM69 4.4l38.9 22.2-5.6-70.4zm-111.9-79h85.8L0-114.3zm-65.2 100.3 43 53.6-4.2-75.8zm216.2 0L69.3 3.5l-4.2 75.8zm-210.8-68.8 33.1 48.2 28.1-80.7zM41.5-75.6 69.6 5.1l33.1-48.2zm-107.8 154L.5 106.1V54.5zm132.6 0L-.5 54.5v51.6zm-136.5-75 4.3 75.7L.9 55.3zM65.9 79.1l4.3-75.7L-.9 55.3zM0-21.3l42.9-54h-85.8zM-70.4 4.9.8-21.9l-43-53.9zM-.8-21.9 70.4 4.9 42.2-75.8zm-69.8 26L.4 56l.1-78.8zm141.2 0L-.5-22.8-.4 56z" style="fill:none;stroke:rgb(79,156,255);stroke-opacity:1;stroke-width:1;stroke-linecap:round;stroke-linejoin:round"/></g><g opacity="0"><animate attributeName="opacity" calcMode="discrete" repeatCount="indefinite" dur="3.000s" keyTimes="0.0000;0.0278;0.0556;0.0833;0.1111;0.1389;0.1667;0.1944;0.2222;0.2500;0.2778;0.3056;0.3333;0.3611;0.3889;0.4167;0.4444;0.4722;0.5000;0.5278;0.5556;0.5833;0.6111;0.6389;0.6667;0.6944;0.7222;0.7500;0.7778;0.8056;0.8333;0.8611;0.8889;0.9167;0.9444;0.9722" values="0;1;0;0;0;0;0;0;0;0;0;0;0;0;0;0;0;0;0;0;0;0;0;0;0;0;0;0;0;0;0;0;0;0;0;0"/><path d="m1-113.7-44.3 12.2-22 9.3zm18 218.5-45.5 7.9 72.4-7.6zM-96.7-60.7-115.3 9l18.7-45.7zM113.7 17 80.2 73l14.7-14.5zm-229.2-9.8 28 68.8-9.6-41.6zm18.3-67 .2 24 33.2-57.5zm72.4 173-21.8-29.1-42.1-9.4zM81.6 71.6l-63.5 33.5 26.9.4zM51.9-76.1l52.7 28.6-42.9-50.9zm.8.5 9.8-22.3-63.4-15.9zM-115.5 8.1-97 35.4l.4-73.1zM20 105l-67.6-21.2 21.9 29.3zM85.5 0l28.2 18.7-9.7-67.8zM-46 84.8l-51.8-51.2 9.6 41.9zm159.9-67L85.7-1l-5.2 74.1zM-29.8-71.8.8-114l-66.1 21.4zm-67.7 35.7 68.4-36.4-35.4-20.7zM51.9-77 86.2.7l18.3-49zm-82.7 5 84.2-4-53.5-38.1zM81.7 72.1 24.1 54.5l-5.6 51.1zM-47.7 84.4l67.1 21.1L25 54.4zm-50-49.2 48.5-25.5-47.9-47.3zM81.2 72.8l5.3-73.9-62.9 56.4zM-98.1 34.3l51.7 50.9-3.2-76.4zm.5-71.2 47.8 47.3 20.4-83.6zM20.5-21.3 86.8.4 52.6-77.2zm.9.5 31.9-56-84.1 4zM-50.5 8.8l3.3 76.3 72.6-29.9zM87-.4 20.8-22.2 24.1 56zM-50.6 10.2l72.7-31.6-52.3-51.9zm-.3-.7 75.8 46.4-3.2-78.2z" style="fill:none;stroke:rgb(79,156,255);stroke-opacity:1;stroke-width:1;stroke-linecap:round;stroke-linejoin:round"/></g><g opacity="0"><animate attributeName="opacity" calcMode="discrete" repeatCount="indefinite" dur="3.000s" keyTimes="0.0000;0.0278;0.0556;0.0833;0.1111;0.1389;0.1667;0.1944;0.2222;0.2500;0.2778;0.3056;0.3333;0.3611;0.3889;0.4167;0.4444;0.4722;0.5000;0.5278;0.5556;0.5833;0.6111;0.6389;0.6667;0.6944;0.7222;0.7500;0.7778;0.8056;0.8333;0.8611;0.8889;0.9167;0.9444;0.9722" values="0;0;1;0;0;0;0;0;0;0;0;0;0;0;0;0;0;0;0;0;0;0;0;0;0;0;0;0;0;0;0;0;0;0;0;0"/><path d="m-51.2-100.5-51.4 46.7 39.9-35.8zM37 102.4l-52 12.5 68-15zM1-113.5l-53 13.4L-63.6-89zM93.4 64l-57.3 38.8 16.1-2.5zM60.6-78l42.6 25.2-45.6-47.9zM98.3-5.7l17.2 16.2-13.1-64.9zM-102-55.4l-12.1 73.1 26.8-48.3zM61.4-77.5l-3-22.7-59.3-13.4zm-74.8 192.8-12.3-27.1-54.6-5.2zm129-105.8L98.3-6.7l-5.9 72.3zm-230 6.5L-79 84.2l-3.7-41.8zm11.9-70.5 14.8 24.8 25.5-60.7zM38 102.4-26.7 88l12.4 27.2zM60.3-78.9l38.6 74 4-48.8zm-174.7 95.8 31.8 26.5-5-74.9zM-25.1 89l-58.4-47.2 3.7 41.9zm8.8-158.8L.6-113.9l-64.3 24.3zM93.5 64.5 47.2 52.3l-10.7 50.9zM-17.3-70l79.2-8-62.2-35.9zM93.1 65.3l5.9-72-52.2 59.9zM-88.4-29.8l72.7-40.7L-63-90.2zm61.5 118.5L37.4 103l10.8-50.7zM40.8-22.1 99.4-5.2 60.9-79.1zM-83.5 43.3l56.6-29.7-61.3-44.9zm-.4-.8 58.4 46.9-1.9-76.6zM41.7-21.6l19.9-57.1-79.1 8zM99.5-6.1 41-23.1l6.3 76.9zM-88.6-30.6l61.1 45 11.4-85.6zm60.4 43.4 1.8 76.5L48.5 53zm-.1 1.5 70.6-36.6-59.2-49zm-.4-.7 76.8 40.1-6.2-76.8z" style="fill:none;stroke:rgb(79,156,255);stroke-opacity:1;stroke-width:1;stroke-linecap:round;stroke-linejoin:round"/></g><g opacity="0"><animate attributeName="opacity" calcMode="discrete" repeatCount="indefinite" dur="3.000s" keyTimes="0.0000;0.0278;0.0556;0.0833;0.1111;0.1389;0.1667;0.1944;0.2222;0.2500;0.2778;0.3056;0.3333;0.3611;0.3889;0.4167;0.4444;0.4722;0.5000;0.5278;0.5556;0.5833;0.6111;0.6389;0.6667;0.6944;0.7222;0.7500;0.7778;0.8056;0.8333;0.8611;0.8889;0.9167;0.9444;0.9722" values="0;0;0;1;0;0;0;0;0;0;0;0;0;0;0;0;0;0;0;0;0;0;0;0;0;0;0;0;0;0;0;0;0;0;0;0"/><path d="m107.1-12.2 6.5 14.5-15.7-62zM-112.1-1.4l3.6 28.2 4.6-76.3zm179-79.1 32 22.4L52-102.8zM-109 25l14.3 31.7 27.6 34.8zM113.6 1.4 107-13.2l-6.5 70.4zm-172.7-100-45.6 50.8 46.1-38.5zm60-14.7-60.8 15.2.4 12.4zM67.8-80l-15-22.4-53.7-10.9zm-1.4-1.3 41.1 70-9.1-47.6zm-68 197.5-1.8-25.9-65.2.3zM54.3 98l-58.7-7.8 1.9 26zm47.3-42L68 48.2 52.8 98.9zM-104.3-49.3l-4.6 76.1 34.4-51.5zM101.1 56.8l6.4-70-39.9 62.3zm-210.4-31.6 41.9 66.5 2.9-42.2zm4.5-73.7 29.9 24.7 16.4-63.4zM-3-68.5l71-12-68.4-33.2zm1 .1 2.5-45.3L-60-86.4zm-.9 159.5L-65.4 49l-2.8 42.2zm-1.9-.1 58.5 7.6 15.2-50.5zM59.1-24.2l48.8 12.5-41-69.8zM-109.3 26l44.8 24.5-10.5-76zm217.2-38.5L59.2-25.2l8.9 74.9zM-75.8-23.8l74.2-45.4-57.8-17.9zm135.8 0 7.6-57.4-71 11.9zM-4.6 15.3l.3 76.2 73.5-42.8zm-61.2 34.4 62.4 41.9-.3-76.4zm.5.8L-3.2 16l-72.5-41.3zM-5 16l73.8 33.5-8.7-74.9zm-71.1-40.6 72.4 41.3L-2-69.8zm71.5 41.3 65.1-41.3-63.4-45.3z" style="fill:none;stroke:rgb(79,156,255);stroke-opacity:1;stroke-width:1;stroke-linecap:round;stroke-linejoin:round"/></g><g opacity="0"><animate attributeName="opacity" calcMode="discrete" repeatCount="indefinite" dur="3.000s" keyTimes="0.0000;0.0278;0.0556;0.0833;0.1111;0.1389;0.1667;0.1944;0.2222;0.2500;0.2778;0.3056;0.3333;0.3611;0.3889;0.4167;0.4444;0.4722;0.5000;0.5278;0.5556;0.5833;0.6111;0.6389;0.6667;0.6944;0.7222;0.7500;0.7778;0.8056;0.8333;0.8611;0.8889;0.9167;0.9444;0.9722" values="0;0;0;0;1;0;0;0;0;0;0;0;0;0;0;0;0;0;0;0;0;0;0;0;0;0;0;0;0;0;0;0;0;0;0;0"/><path d="M10.9 115.3-54 96.9l9.1 5zM-115.2 6.1l22.3 60.1-6.1-31.3zM70.2-84.2l42 65.9L91.4-64zm1.5 1.3L46-104.4l-47-8.7zM-99.6 34l6.1 31.4 41.1 32.5zm-15.6-26.9 16.3 28.8-3.9-79zm221 39.8-20.5-4.6L66.6 93zm-.3.9 6.4-68L85 43.2zM.9-113.1l-67.1 17.8 12.9 12.6zM68.1 92l-50-1.8-8.8 25.5zM-65.5-95.8l-38.1 54.4 51.1-41.9zm75.8 211.5 8.8-25.5-73.1 6.9zM74.7-27.6l37.7 8.9-41.8-65.6zM17.5 91l50 1.7 18.7-50.6zm-6-158.8 60.3-15.5-72.4-30.1zm100.9 48.3-37.8-9.1 10.9 72.4zM-99.9 34.4l47 63.7 9.8-42.9zm-3.4-77.2 3.9 78.6 40.9-55.1zm115.7-25L.3-113.5l-54.4 30.4zM-103.7-42l44.8 23.6 6.1-65.7zm123 132.9L-44 54.8l-9.7 43zM75.6-27.2 71.3-84 10.9-68.5zM-99.9 35.2l56.8 21-16-76.2zM19.3 15.9 18 91.5l68.5-48.7zm-79-34.3 72.4-50.2-66.4-15.3zm78.6 35.1 67.3 26.8-10.7-72.3zm-63.5 38.9 63.4 35.9 1.4-75.7zm64-38.2L76-28 11.3-69.2zM-44 56.3l64.6-39.8-80.4-36.3zm-16.1-75.4 80.4 36.3-8.1-86.4z" style="fill:none;stroke:rgb(79,156,255);stroke-opacity:1;stroke-width:1;stroke-linecap:round;stroke-linejoin:round"/></g><g opacity="0"><animate attributeName="opacity" calcMode="discrete" repeatCount="indefinite" dur="3.000s" keyTimes="0.0000;0.0278;0.0556;0.0833;0.1111;0.1389;0.1667;0.1944;0.2222;0.2500;0.2778;0.3056;0.3333;0.3611;0.3889;0.4167;0.4444;0.4722;0.5000;0.5278;0.5556;0.5833;0.6111;0.6389;0.6667;0.6944;0.7222;0.7500;0.7778;0.8056;0.8333;0.8611;0.8889;0.9167;0.9444;0.9722" values="0;0;0;0;0;1;0;0;0;0;0;0;0;0;0;0;0;0;0;0;0;0;0;0;0;0;0;0;0;0;0;0;0;0;0;0"/><path d="m22.5 113.4-59-11.7-2.2 4.8zm-111.9-40 51.6 33.4 2.3-4.7zm195.7-34.7 6.3-66.1-14.1 63.3zM73.2-86l-35.1-20.2-39.1-6.6zm33.4 123.7-7.8-2.8-21.2 51zM-69.2-92.8-107-37.9l9 3.2zm-37.4 54-7.8 55.9 16.8-52.7zM79 84.7 39.4 88l-18.6 25.9zm-193.7-69.4 26.3 59.6 3.2-31.5zm136.4 98.5 18.7-25.9-77.5 14.4zM-85.9 42.7-89 74.2l53.6 28.7zM87-32l26.2 6.2-41.3-61.5zM.9-113l-71.5 20.9 25.2 12.4zM38.8 88.8l39.6-3.4 21.3-50.6zM113-26.7 86.8-33l12.3 69.5zm-227.7 43 29.6 28.1-13.1-80.7zm44.8-108.9-28.9 58.1 54.2-45.8zm95.3 24.8 47.9-18.6-74-26.7zm62.5 36.1L72.6-87.1 24.7-68.5zM26.4-67.9.2-113.3-46.3-80zM40.6 88.5l-61.1-29.7-16.3 44.1zm-127-45.4 50.4 60.1 16.4-44.1zM42.1 14.6l-2.9 74.6 60.7-53.8zM-98.8-36l13 80.5 46.1-59.3zM41.8 15.4l57.9 20.8-12.1-69.4zM-99.1-35.2-40-13.9-45.1-81zM42.3 16.1l45.9-48.6-63.1-36.7zm-63.4 43.5 61.2 29.5L43 14.4zm-19.8-73.4 67.4-54.9-72.4-12.1zm-45.5 57.7 66.8 16.2-20.7-75.6zm45-58.4 84.6 30.4-17.3-85.2zm20.9 74.8 64-45.2-84.6-30.4z" style="fill:none;stroke:rgb(79,156,255);stroke-opacity:1;stroke-width:1;stroke-linecap:round;stroke-linejoin:round"/></g><g opacity="0"><animate attributeName="opacity" calcMode="discrete" repeatCount="indefinite" dur="3.000s" keyTimes="0.0000;0.0278;0.0556;0.0833;0.1111;0.1389;0.1667;0.1944;0.2222;0.2500;0.2778;0.3056;0.3333;0.3611;0.3889;0.4167;0.4444;0.4722;0.5000;0.5278;0.5556;0.5833;0.6111;0.6389;0.6667;0.6944;0.7222;0.7500;0.7778;0.8056;0.8333;0.8611;0.8889;0.9167;0.9444;0.9722" values="0;0;0;0;0;0;1;0;0;0;0;0;0;0;0;0;0;0;0;0;0;0;0;0;0;0;0;0;0;0;0;0;0;0;0;0"/><path d="m1-112.6-31.6 7.8L-73-88.1zm32.2 222.9-50.8-4.9-13.3 4.3zM72.5-89.3l-43.1-18.5-30.4-4.7zM-81.6 82.1l51.7 27.9 13.3-4.4zm168.5-5.7-28.2 7.3-27.3 27.2zm8.9-113.7 14.7 4.3L71-90.5zm14.4 3.4-14.7-4.3 13 66.4zM58.1 84.5l28.1-7.4 22.7-50.7zM-71.7-89.3l-40.1 58.6 22.3 2.8zm104 199.9 27.4-27.1-78.3 22.2zM-111.6-31.6l1.8 58.2 20.6-55.5zm1.3 56.5 29.7 58.5 13.1-32.3zM.8-112.8-73-88.4l37.3 11.5zm37.5 44.1 34.1-21-73.2-23.1zM-68.3 50.5l-13 32.3 64.5 23.3zm165-87.4-25-53.4-34.2 21zM-72.4-89.1l-18 61.5 55.4-50zm-37.8 115 42.6 26.2-22.3-81.5zM62.5 12.3 109 27.9 96.2-38.5zm.3-.9-4.3 73.4L109.2 27zM39.2-68.9 0-113l-36.7 35.9zM59.8 84 4 60.6l-22.3 45.6zM-69 50.9l51.5 55.5L4.9 60.8zM63.1 13l33.7-50.8-59-32.2zM3.4 61.4l55.9 23.2 4.4-73.3zM-90.5-29l22.2 81.2L-19-11.6zm-.2.8 71.5 17.5-16.4-67.5zM-20-10.5l59.2-59.1-75.6-8.3zm-48.9 62.2L4.9 61.8l-24.5-74zm48.3-62.8 84.5 23.8-25.3-82.8zM4 62l60.1-50.1-84.5-23.8z" style="fill:none;stroke:rgb(79,156,255);stroke-opacity:1;stroke-width:1;stroke-linecap:round;stroke-linejoin:round"/></g><g opacity="0"><animate attributeName="opacity" calcMode="discrete" repeatCount="indefinite" dur="3.000s" keyTimes="0.0000;0.0278;0.0556;0.0833;0.1111;0.1389;0.1667;0.1944;0.2222;0.2500;0.2778;0.3056;0.3333;0.3611;0.3889;0.4167;0.4444;0.4722;0.5000;0.5278;0.5556;0.5833;0.6111;0.6389;0.6667;0.6944;0.7222;0.7500;0.7778;0.8056;0.8333;0.8611;0.8889;0.9167;0.9444;0.9722" values="0;0;0;0;0;0;0;1;0;0;0;0;0;0;0;0;0;0;0;0;0;0;0;0;0;0;0;0;0;0;0;0;0;0;0;0"/><path d="M91.4 67.5 75.3 77.6l-34.5 29.1zM69.6-92.6 20-109l-21-3.3zM42.5 106l-40.8.8-23.2 5.6zm58.6-149.3 3.6 3.5-36.6-53.9zm-190.7-24-23.6 45 41.5-63zm194 26.6-3.7-3.5 13.1 63.5zM1-112.3l-41.6 8.7-32.6 19.5zM74.6 78.3l16.2-10.1 23.3-50.8zM-112.8-24.2l6.8 66.3 5.5-6.8zM-69 91.3l-31.8-56.9-5.6 6.8zm-1.5-1.1 49.9 22.4 23.3-5.7zm112.2 16.2 34.4-29.3-75.3 30zm7.9-176.6 19.9-22.9-70.4-19.4zm52.3 27.5-33.2-51-19.9 23zM-72-85.4l-41.5 62.6 36.1 1.5zm152.2 93 34 11.3-13-63.2zm.2-1L75 78.5 114.4 18zm-193.7-30.3 12.3 59.9 23.8-58.5zm114-88.9-74 28.2 48.7 9.9zM-47.5 56.9l-22.8 33.9 72.9 16.5zm-54.1-22.3 32 56.8 22.9-34zm177.8 43L28.2 60 1 107.5zM50.4-70.6-.1-112.8l-25.4 38.2zM80.9 8.2l20.9-51.8-52.9-28zM-72.8-85.1-78.3-21l54.4-54.2zm-28.7 120.6 54.7 22.8-31.1-81zM27.6 60.8l48.1 17.5 5.6-71.9zm-75.9-3.5 50.2 50.4 27.3-47.5zM1.2-9.2 81.5 7.9 49.6-71.8zm.7.6 48.4-62.7-75.8-4.2zm-80.6-12.9L2.7-8.9l-27.3-66.9zm.2-.8 31 80.8L2.8-9.8zM28.3 61.5 81.7 7 1.3-10zM-48.2 58l77.3 3.1-27-71.4z" style="fill:none;stroke:rgb(79,156,255);stroke-opacity:1;stroke-width:1;stroke-linecap:round;stroke-linejoin:round"/></g><g opacity="0"><animate attributeName="opacity" calcMode="discrete" repeatCount="indefinite" dur="3.000s" keyTimes="0.0000;0.0278;0.0556;0.0833;0.1111;0.1389;0.1667;0.1944;0.2222;0.2500;0.2778;0.3056;0.3333;0.3611;0.3889;0.4167;0.4444;0.4722;0.5000;0.5278;0.5556;0.5833;0.6111;0.6389;0.6667;0.6944;0.7222;0.7500;0.7778;0.8056;0.8333;0.8611;0.8889;0.9167;0.9444;0.9722" values="0;0;0;0;0;0;0;0;1;0;0;0;0;0;0;0;0;0;0;0;0;0;0;0;0;0;0;0;0;0;0;0;0;0;0;0"/><path d="m64.9-95.8-54.8-14.1L-1-112zM50.3 100.7 20.9 106l-32.3 8.1zm-99.2-202.9-48.5 41 27.2-19.1zm98.3 203.3 39.8-31.9L20 106.3zM.9-112.1l-50.6 10.3-21.3 22zM-56.5 97.2l46 16.9 32.4-8.2zM-96.9-62l-14.2 48.2 41.5-67.3zM94.3 1.5l21.2 8.3-12.7-60.2zm9.3-50.3L63.7-96.9l-5.5 24zm-158.5 147-32.9-54.4-16.6 7zM94.4.5l-6.3 70.2 27.5-61.9zm-205.3-16.2 6.9 67.3 16.6-6.9zM59-72.4l5.5-24-65.4-15.8zM95 2.1l8.3-51.8-45.2-24.2zm-5.7 67.6L50.9 57.2l-30.7 49.5zM.6-112.5l-71.8 32.3 58.9 7.7zM-24.3 61.3l-32.1 36.5 78.2 8.6zM-70-81.3l-41.5 67 49.6-1zM50.3 58l38.5 12.4L95.2.3zM-88.8 43.9l33.2 54.4 32.1-36.5zM59.7-72.9l-60-39.6-13 39.9zm-171.1 57.7L-88 45.3l26.2-61.5zm86.2 76.9L21 106.8l30.9-49.5zM-70.8-80.9l8.1 66 50.9-58.5zm93.7 72L95.5 1.7 58.8-74.1zM-88.7 44.7l65.1 17.9-38.9-79.3zM51 58.6 95.6.8 22.9-9.8zM23.6-8.3l35.9-65.3-72.9.1zm-48.7 70.8 76.9-4.3-28.1-68.3zm-38.2-77.9 87.7 6.7-37-65.2zm.1-.8 38.8 79.1L24.4-9.6z" style="fill:none;stroke:rgb(79,156,255);stroke-opacity:1;stroke-width:1;stroke-linecap:round;stroke-linejoin:round"/></g><g opacity="0"><animate attributeName="opacity" calcMode="discrete" repeatCount="indefinite" dur="3.000s" keyTimes="0.0000;0.0278;0.0556;0.0833;0.1111;0.1389;0.1667;0.1944;0.2222;0.2500;0.2778;0.3056;0.3333;0.3611;0.3889;0.4167;0.4444;0.4722;0.5000;0.5278;0.5556;0.5833;0.6111;0.6389;0.6667;0.6944;0.7222;0.7500;0.7778;0.8056;0.8333;0.8611;0.8889;0.9167;0.9444;0.9722" values="0;0;0;0;0;0;0;0;0;1;0;0;0;0;0;0;0;0;0;0;0;0;0;0;0;0;0;0;0;0;0;0;0;0;0;0"/><path d="m55.2 95.1 43.3-34.9-60.3 43.3zm-110.4 0 17 8.4-60.3-43.3zM104.4-5.8l8.8 6.6-12.1-57.4zm-205.5-50.8L-113.2.8l8.8-6.6zm-3.3 49.8-8.8 6.6 15.6 62zm208.8 0-6.8 68.6 15.6-62zM102-55 57-99.9l8.5 24.1zM-57-99.9-102-55l36.5-20.8zm16.9 202.8L0 114.6l40.1-11.7zM66.4-75.3l-8.5-24.1-58.8-12.5zM.9-111.9l-58.8 12.5-8.5 24.1zM105.1-5l-3.5-50.9-36.5-20.8zm-206.7-50.9L-105.1-5l40-71.7zM98.6 60.7 71 52.1l-32.6 51.6zm-137 43L-71 52.1l-27.6 8.6zM70.5 53l27.7 8.5 6.9-68.4zM-105.1-6.9l6.9 68.4 27.7-8.5zM0 63.5l-39.9 39.9h79.8zM66.7-75.8-.4-112.3l-.1 41zM.4-112.3l-67.1 36.5L.5-71.3zM-.8 63.9l40 39.9L72 52.2zM-72 52.2l32.8 51.6 40-39.9zM43.5-10.2l62 4.7-39.8-71.4zM-65.7-76.9l-39.8 71.4 62-4.7zM71.1 53.6l34.4-60-62.1-4.7zm-176.6-60 34.4 60 27.7-64.8zM44.2-9.8l22.2-66.7-67.2 4.3zM-66.4-76.5l22.2 66.7 45-62.4zm-5.5 129.6L.7 64.7l-44.9-76.2zM-.7 64.7l72.6-11.6-27.7-64.6zm-44.2-74.9 89.8-.1L0-72.6zm0-.9L0 65.1l44.9-76.2z" style="fill:none;stroke:rgb(79,156,255);stroke-opacity:1;stroke-width:1;stroke-linecap:round;stroke-linejoin:round"/></g><g opacity="0"><animate attributeName="opacity" calcMode="discrete" repeatCount="indefinite" dur="3.000s" keyTimes="0.0000;0.0278;0.0556;0.0833;0.1111;0.1389;0.1667;0.1944;0.2222;0.2500;0.2778;0.3056;0.3333;0.3611;0.3889;0.4167;0.4444;0.4722;0.5000;0.5278;0.5556;0.5833;0.6111;0.6389;0.6667;0.6944;0.7222;0.7500;0.7778;0.8056;0.8333;0.8611;0.8889;0.9167;0.9444;0.9722" values="0;0;0;0;0;0;0;0;0;0;1;0;0;0;0;0;0;0;0;0;0;0;0;0;0;0;0;0;0;0;0;0;0;0;0;0"/><path d="m-10.2-110.5-54.9 14.7L1-111.4zM97.6-61.1 49-102.5l21.3 23.2zM-49.2 100.7l29.3 6.4L-89 70zm27.3 6 32.3 7.1 45.9-16zM71.2-78.8l-21.3-23.3-50.8-9.4zm39.9 65.9-14-49L69.7-80zm-214-36.9-12.5 59.9 21.1-7zM104.2 51l-16.5-5.8-33 53.6zM-94.4 2.1l-21.2 7 27.7 62.3zm181.6 44 16.6 5.7 7.2-66.6zm-151.1-143-39.8 48.7 45.4-23.3zM.9-111.6l-65.6 15.2 5.5 25.4zm-21.1 219L-50.8 59l-38.3 11.4zM-103.5-49-95 3.7l36.8-76.1zM24.3 63.2l-46 44 77.9-8.8zM71.4-79.2l-72-32.7 13 41.2zm-9.5 66 49.6-.2-41.3-66.9zm-157.1 15 6.6 69.3 38.4-11.3zM23.4 63.7l32 35.2 33.2-53.7zm64.5-17 23.5-61-49.6.2zM.3-112l-60.1 40.5 73.1.7zM-51.8 59.1l30.8 48.4 46.1-43.9zM62.7-12.8 71-79.9l-59.1 8.3zM-58.9-72.6-95.5 3.3l72.6-9.8zM23.6 64.5l65-18.4-26.1-60.7zM-95.6 2.4l44.7 58L-23-7.4zm36-74.6 36 66.2 37-65.7zM-51.7 60 25 64.4-23.7-7.7zm27.3-66.4 87.7-6.9-50.7-58.8zm0-.8 48.7 72 38.9-79z" style="fill:none;stroke:rgb(79,156,255);stroke-opacity:1;stroke-width:1;stroke-linecap:round;stroke-linejoin:round"/></g><g opacity="0"><animate attributeName="opacity" calcMode="discrete" repeatCount="indefinite" dur="3.000s" keyTimes="0.0000;0.0278;0.0556;0.0833;0.1111;0.1389;0.1667;0.1944;0.2222;0.2500;0.2778;0.3056;0.3333;0.3611;0.3889;0.4167;0.4444;0.4722;0.5000;0.5278;0.5556;0.5833;0.6111;0.6389;0.6667;0.6944;0.7222;0.7500;0.7778;0.8056;0.8333;0.8611;0.8889;0.9167;0.9444;0.9722" values="0;0;0;0;0;0;0;0;0;0;0;1;0;0;0;0;0;0;0;0;0;0;0;0;0;0;0;0;0;0;0;0;0;0;0;0"/><path d="m-40.5 106.1-34.4-26.7L-91 67.2zm61.9 5.6-23.1-3.3-40.6-3zm-41.5-221.8-49.9 18 71-19zm-48.4 16.9-36.6 53 3.9-.9zm-45.1 113.7 12.7-62.5-3.8.9zm226.9-41.6L90-67.7l-17.9-16zM-114 18.6-90.4 68l16.2 12.2zm214.2 19.1 5.6 4.3 7.2-64.9zM-2.7 108.5l23.1 3.4 49.7-20.8zm108.9-67.4-5.7-4.3-31.9 55.4zM73.6-82.5l-32.7-22-41.9-6.7zm-115 188.2 40.6 2.9-75-29.6zM.9-111.4l-70.8 18.8L-49.8-67zm-70 18.2-33 52.5L-49-67.5zm-32.4 50.9-12.6 62.4 33.9-8.8zm179 24.7 36.1-4-41.2-62.3zm-157.9 28-33.8 8.8 39.6 61.2zm181.1 28.1 12.7-61-36.1 4zm-53.4 22-49.9 48.4 72.5-17.2zm-.8.6 22.7 31.1 32.2-55.3zm27.2-144L-.7-111.6 24.7-71zM-1 109l-27.1-45.1-47.7 15.5zM-102.1-41.6l21.3 53.5 31.7-80.3zM.1-111.7l-50.7 44.4 76.3-3.8zm78.3 94.4-5.2-66.3L24-71.7zM-81.2 10.1l5.9 70 47.8-15.5zM46.6 61.9l54.7-24.1L78-19zM-29.1 64l27.3 45.2 49.9-48.3zM-49.9-68.5l-31.6 80L-1.2-4.3zm-.6.5L-1.9-3.8 25.6-72zM-2.8-4.9l50.1 67 31.3-80.8zm.1.8 81.5-13.7-54.1-54.5zm-79 14.8 53.6 54.6L-1.3-5.2zM-29 64.9l77-3.3L-2.1-5.5z" style="fill:none;stroke:rgb(79,156,255);stroke-opacity:1;stroke-width:1;stroke-linecap:round;stroke-linejoin:round"/></g><g opacity="0"><animate attributeName="opacity" calcMode="discrete" repeatCount="indefinite" dur="3.000s" keyTimes="0.0000;0.0278;0.0556;0.0833;0.1111;0.1389;0.1667;0.1944;0.2222;0.2500;0.2778;0.3056;0.3333;0.3611;0.3889;0.4167;0.4444;0.4722;0.5000;0.5278;0.5556;0.5833;0.6111;0.6389;0.6667;0.6944;0.7222;0.7500;0.7778;0.8056;0.8333;0.8611;0.8889;0.9167;0.9444;0.9722" values="0;0;0;0;0;0;0;0;0;0;0;0;1;0;0;0;0;0;0;0;0;0;0;0;0;0;0;0;0;0;0;0;0;0;0;0"/><path d="m30.6 108.5-13.2-.7-50.2 1.8zm-14.2-.5 13.2.7L80.9 83zm-47.4 2.1L-58.3 87l-27.9-10.4zM73.6-86.5l-42.6-20-32-4.4zm-103.3-22.6-43.4 21.2L1-110.8zm-42 20-39.2 56.6 14.8-.8zm-37 118.2 23.2 48.2 27.9 10.4zm76.7 80.8 50.4-1.9-77.6-21.3zm-76.2-79 12.4-65.1-14.8.7zm198-54 22.4-6.8-39.9-57.8zm19.7 52.3 2.4-60L89.5-24zM67.2 56.1 80 84.3l30-56.8zm.7-.6-51.3 52.9 64.1-24.8zm5.7-142.3L-.8-111.2 36-72zM.8-111.2-73-88.4l34.5 25.1zM-72.4-89-97-33l59.2-30.9zM67.2 57l42.7-28.6-19.8-53.1zM-62.7 17.6l-46.2 12.1L-58 88zM90.6-22.9 73-87.5 35.3-72.7zM-96.6-34.6l-12.1 65.1 46.3-11.9zm114.7 143L-4 66.4l-55.3 20.8zM0-111.4l-39.4 47.8 76.3-8.6zM-4.9 66.7l22.2 42 51.3-52.9zM-97.1-33.9-63 19.2l25-83.9zm33.5 51.4 4.8 70.3 55.5-20.6zM19-4.4l49 61.6 22.7-81.5zm.2.9 71.8-20-55.2-49.8zm-24 71.1 73.4-11L19.6-5zM-39.4-64.3 20-3.3l16.7-69.8zm.6-.5-25 83.7L20.6-3.9zM-64 18.1l60 49.8L20.4-4.8z" style="fill:none;stroke:rgb(79,156,255);stroke-opacity:1;stroke-width:1;stroke-linecap:round;stroke-linejoin:round"/></g><g opacity="0"><animate attributeName="opacity" calcMode="discrete" repeatCount="indefinite" dur="3.000s" keyTimes="0.0000;0.0278;0.0556;0.0833;0.1111;0.1389;0.1667;0.1944;0.2222;0.2500;0.2778;0.3056;0.3333;0.3611;0.3889;0.4167;0.4444;0.4722;0.5000;0.5278;0.5556;0.5833;0.6111;0.6389;0.6667;0.6944;0.7222;0.7500;0.7778;0.8056;0.8333;0.8611;0.8889;0.9167;0.9444;0.9722" values="0;0;0;0;0;0;0;0;0;0;0;0;0;1;0;0;0;0;0;0;0;0;0;0;0;0;0;0;0;0;0;0;0;0;0;0"/><path d="m34.8 105.5 2.8-1.1 50.9-30.6zm-107.4-190L-83-70.4l-30.4 46.9zm144.1-5.9-51.1-17.7-21.4-2.4zM-76.8 86.8-98.3 40l-7.7-2.9zM-105.7 38l7.7 2.9-15-66.2zm219.8-18.7L107-39l-8.8 8.7zm-134.5 93.9L-39 92.9l-39.2-7.2zM98.5-29.4l8.9-8.7L70-91.6zm-137.2-78.1L-74-83.2l75-27.4zM84.7 49.2l2.8 26.1 27-57.8zM-21.4 113l58-7.9L-40 92.7zM85.3 48.5l-50.4 57.2 53.3-31.1zm-184.5-9 21.7 46.8 39.2 7.3zm26.5-124.1-40.9 60.7 26.3-1.7zM84.6 50.2l29.8-31.8-15.8-49.6zm-183.2-8.9 11.5-67.8-26.3 1.7zm170-132.2L-.9-110.8l46.8 37.1zm27.9 61.5-28.6-62-25.6 17.1zM.7-111l-74.8 27.3 48.5 23.4zm35.6 216.6L20.4 66.5l-60.5 26.8zM19.4 66.8l16.1 39.1 50.4-57.1zM-73.5-84.4l-14.8 59.1L-24.9-61zm73.3-26.7-26.4 50.7 73.4-13.7zM-42 23.5l-57.5 16.6L-38.8 94zm-46-50.4-11.2 67.8 57.5-16.5zM39.8-5.7l45.5 55.9 13.9-81.1zm.3.9 59.4-25.3-54-45zm-83 28.2 3.3 70.5L21 67.2zm62.4 44.4 66.4-18.2-45.5-56zm-108-93.9L-42.2 25l16.9-86.7zm61.8-35.1L40.9-4.7l5.5-70.2zM-43.4 24l63.8 43.9L41.2-6.2zm17.3-85.8L-43 24.8 41.4-5.4z" style="fill:none;stroke:rgb(79,156,255);stroke-opacity:1;stroke-width:1;stroke-linecap:round;stroke-linejoin:round"/></g><g opacity="0"><animate attributeName="opacity" calcMode="discrete" repeatCount="indefinite" dur="3.000s" keyTimes="0.0000;0.0278;0.0556;0.0833;0.1111;0.1389;0.1667;0.1944;0.2222;0.2500;0.2778;0.3056;0.3333;0.3611;0.3889;0.4167;0.4444;0.4722;0.5000;0.5278;0.5556;0.5833;0.6111;0.6389;0.6667;0.6944;0.7222;0.7500;0.7778;0.8056;0.8333;0.8611;0.8889;0.9167;0.9444;0.9722" values="0;0;0;0;0;0;0;0;0;0;0;0;0;0;1;0;0;0;0;0;0;0;0;0;0;0;0;0;0;0;0;0;0;0;0;0"/><path d="m104-36.4-4.6-9.4-33.5-49.6zM67.4-94.3 9.3-109.1-1-110.2zm31 135.1-6.5 24.9 23.2-58.4zM-46-105.8l-47 41.7 21.3-14.6zM99 40l-47.5 61 40.9-36.1zM-71.1-79.5l-21.3 14.6-20 50.7zm62 194.4-8.7-18.3-49.3-2.6zM-65.6 95l-19.1-45.4-20.3-2zM98.3 41.8 115 8.3l-11.5-46.6zM-46.8-105.4l-25.8 27.2L1-110.3zM-10 114.9l63.2-14.7-72-3.7zm-94.7-66.4 20.4 2.1-27.9-66.6zm208.9-85.1L66.4-95.4 53.3-76.6zm-37-58.2L-.9-110.4l55 34.4zM-85.6 49.3l19.2 45.3 49.2 2.7zM42.7 64.4l9.3 36.7 47.3-60.8zM-71.5-79.7l-41.3 65.1 37.8-3.6zM52.8 100.8 43.6 64l-62.7 33.2zM-84.9 51l10-70.2-37.8 3.8zM58.7-8.7l40.1 50.4 5.2-79.8zM.6-110.7l-73.3 32L-11.6-58zM59-7.8l45.4-29.5-50.9-40.2zm-59.3-103-12.2 52.7 67.3-18.5zm43 176.2L99.3 41 59.2-9.5zm-115-144.9-3.6 61.6L-11-58.8zm53.1 107-66.7 22.4 68.2 47.9zm-.9-.1 1.6 70.3 62.7-33zm-55.7-46.9-9.7 70.2 66.7-22.4zm63-39.3 72.6 51-5.4-69.5zm-7.8 86.9 64.2 37.4L59.9-9.3zm-55.7-46.8 57 47.7 7.8-88.4zm64-40.8-7.9 88.4L60.2-8.5z" style="fill:none;stroke:rgb(79,156,255);stroke-opacity:1;stroke-width:1;stroke-linecap:round;stroke-linejoin:round"/></g><g opacity="0"><animate attributeName="opacity" calcMode="discrete" repeatCount="indefinite" dur="3.000s" keyTimes="0.0000;0.0278;0.0556;0.0833;0.1111;0.1389;0.1667;0.1944;0.2222;0.2500;0.2778;0.3056;0.3333;0.3611;0.3889;0.4167;0.4444;0.4722;0.5000;0.5278;0.5556;0.5833;0.6111;0.6389;0.6667;0.6944;0.7222;0.7500;0.7778;0.8056;0.8333;0.8611;0.8889;0.9167;0.9444;0.9722" values="0;0;0;0;0;0;0;0;0;0;0;0;0;0;0;1;0;0;0;0;0;0;0;0;0;0;0;0;0;0;0;0;0;0;0;0"/><path d="m-1.9-109.6-52.8 7.4L1-109.8zm110.4 140-42.7 64 27.8-39.5zM-99.1-59.2l-14.6 61.8 6.6-7.8zm207 91.4 4.2-33.9-7.3-44zM-99.4 59.6l-7.7-65.8-6.6 7.8zm46.3-162.7-47 45.5 32.2-15.9zM1.5 115.3l65.9-21.9L3.3 98zm1 0 1.8-17.4-57.5 3.3zM105.7-44 60.2-99.1l-.6 19.6zM61-98.6-.9-110l61.3 31.1zM-67.4-74.4l-32.2 15.9-8.1 54.1zm13.5-28.3-14.9 29.6L.9-110zm2.2 204.8-15.6-43.9-33.1.1zM63.8 59.6l2.4 34.9 42.4-64zm-163.8-.5h33.2l-40.9-65.3zM74.9-13.3l33.4 45.4-3-77.6zM66.9 94l-2.2-34.9L2.9 98.7zM-68.2 58l15.6 43.8 57.3-3.2zM75.3-12.4l30.4-32.3-46.2-35.8zm-11.5 73 44.9-29.2-33.4-45.5zM.4-110.4-69-73.6 3-56.7zm-.9 0L2-56.7l58.9-22.9zm-67.4 35.7-40.2 69.9 48.7-6.9zm.5 134.3 8-72.2-48.7 6.9zm72-30.2-73.1 29.2L4.2 99.1zm-3-86.8L76-12.5 60.4-80.3zm2.1 86.8-.4 69.8 61.8-39.4zM-68.7-74.3l8.4 63L3.4-57.5zM3.2 30.1l61.4 30.5L76-14zm-63.5-42.9-7.8 72.2L5 30.2zM2.1-58.1l1.6 89 72.6-44.1zm-62.8 46 65.2 43-1.6-89z" style="fill:none;stroke:rgb(79,156,255);stroke-opacity:1;stroke-width:1;stroke-linecap:round;stroke-linejoin:round"/></g><g opacity="0"><animate attributeName="opacity" calcMode="discrete" repeatCount="indefinite" dur="3.000s" keyTimes="0.0000;0.0278;0.0556;0.0833;0.1111;0.1389;0.1667;0.1944;0.2222;0.2500;0.2778;0.3056;0.3333;0.3611;0.3889;0.4167;0.4444;0.4722;0.5000;0.5278;0.5556;0.5833;0.6111;0.6389;0.6667;0.6944;0.7222;0.7500;0.7778;0.8056;0.8333;0.8611;0.8889;0.9167;0.9444;0.9722" values="0;0;0;0;0;0;0;0;0;0;0;0;0;0;0;0;1;0;0;0;0;0;0;0;0;0;0;0;0;0;0;0;0;0;0;0"/><path d="M-35.3 107.3-92 68.5l41.1 28.7zm22.1-216.8-47.1 10.8L1-109.5zm117.1 58.1-51.4-50.9 11.4 19.4zM13 114.2l65.7-29.1L25.2 97zM-103.6-51.7l-11.7 64.5 17.1-8.1zM13.9 114.1l12.3-17.3-63.4 10zM-91 70.1l-7.3-66.4-17.1 8.2zm144.4-172L-1-109.6l65.7 27.2zM81.9 52.8l-4.4 33.6 36.4-66.2zM-58.9-99.8l-45.6 49.6 43-18.2zM87.8-19.2l25.8 41.1L103.2-53zM-59.8-99.3l-2.6 31.4L.9-109.7zm138 185.1 4.4-33.7-58.1 45.6zM88.3-18.3l15.4-33.9-40.3-31.6zM-35.6 107.5l-11-42.4-45.5 3.8zM-61.3-69.3-104.2-51l5.3 56.4zm143 123.1L113.9 21 88.1-20.1zM-91.7 69.6l45.5-3.6-52.9-62.5zm44.1-4.7 11.1 42.4 62.9-9.9zM-.6-110l17.2 53.7 48.3-26.8zm.9-.1-63.2 41.6 80.4 12zM16-57l72.9 38.5-24.6-65.3zm11.2 86L25 98.1l58-45.3zm-89.1-98.6L-99.4 5-41-6.2zm88.7 99.4 55.8 23.8L88.7-20zm1.3-.8-76 36.6L25.8 98zm-74.8 37.5 5.6-73.7-58.4 11.3zM-62.6-69.2l20.8 63.4 59.5-51.5zm78.9 11.5 11 88.2 61.8-49.8zM-42-7.4l-5.5 73.7 76-36.6zm-.4.9 70.6 36.9-11-88.2z" style="fill:none;stroke:rgb(79,156,255);stroke-opacity:1;stroke-width:1;stroke-linecap:round;stroke-linejoin:round"/></g><g opacity="0"><animate attributeName="opacity" calcMode="discrete" repeatCount="indefinite" dur="3.000s" keyTimes="0.0000;0.0278;0.0556;0.0833;0.1111;0.1389;0.1667;0.1944;0.2222;0.2500;0.2778;0.3056;0.3333;0.3611;0.3889;0.4167;0.4444;0.4722;0.5000;0.5278;0.5556;0.5833;0.6111;0.6389;0.6667;0.6944;0.7222;0.7500;0.7778;0.8056;0.8333;0.8611;0.8889;0.9167;0.9444;0.9722" values="0;0;0;0;0;0;0;0;0;0;0;0;0;0;0;0;0;1;0;0;0;0;0;0;0;0;0;0;0;0;0;0;0;0;0;0"/><path d="m-78.7 79.8-34.4-57.5 19.7 34zM24 111.6l63-35.9-41.4 17.8zm-48.3-220.3-40.1 13.9L1-109.1zM96.2 44.2 85.7 77.1l29.5-67.6zm-113.8 66.5-62.5-32.3 36.4 24.4zM97.3-26.1l17.8 37.5-16.8-71.7zm-52.7-78.7L-1-109.2l67.8 22.9zM24.9 111.4l21.7-18.3-66.1 17.4zM97.8-25.2l1-34.3-33.5-28zM86.4 76.5l10.4-33.1-51.9 50.7zM96 45.2l19.2-34.8-17.8-37.5zm-201.2-88.7-7.9 67.3 27.8-9.8zm26.3 123.4-6.7-66.8-27.7 9.8zm15.6-175.8-42.6 54 53-21.7zm-.7.5 10.3 32.3L.9-109.5zm46 206.5-5.7-41.3-56.4 9zm-6.6-41.3 5.7 41.2 65.6-17.4zM-.7-109.6 30.4-57l36.4-29.9zm-52.1 45.1-52.9 21.7L-86 14.7zm82.5 6.9 68.6 32.1-32.2-62zM-79.6 79.5l56.4-8.8-63.2-57.8zM49.3 26.3l-4 68.1 51.8-50.3zm-.3.9 47.8 17.7L97.9-27zM.1-109.8l-54.5 46.2 85.7 6.3zm50.1 136L-25 70.5l71.2 23.7zM29.9-58.4l19.7 86.2 48.8-54.1zm-83.4-6.4-33.1 79.1 66-16.7zm29.8 136 2.9-74.5-66 16.8zM-54.2-64.3l32.8 62.4 52.7-56.2zm32.4 60.9-2.7 74.6 75.2-44.3zm-.3.9 72.5 30.2-19.7-86.3z" style="fill:none;stroke:rgb(79,156,255);stroke-opacity:1;stroke-width:1;stroke-linecap:round;stroke-linejoin:round"/></g><g opacity="0"><animate attributeName="opacity" calcMode="discrete" repeatCount="indefinite" dur="3.000s" keyTimes="0.0000;0.0278;0.0556;0.0833;0.1111;0.1389;0.1667;0.1944;0.2222;0.2500;0.2778;0.3056;0.3333;0.3611;0.3889;0.4167;0.4444;0.4722;0.5000;0.5278;0.5556;0.5833;0.6111;0.6389;0.6667;0.6944;0.7222;0.7500;0.7778;0.8056;0.8333;0.8611;0.8889;0.9167;0.9444;0.9722" values="0;0;0;0;0;0;0;0;0;0;0;0;0;0;0;0;0;0;1;0;0;0;0;0;0;0;0;0;0;0;0;0;0;0;0;0"/><path d="M34.8-107.3-1-108.8l67.6 18.5zm-69.6 0-31.8 17L1-108.8zm138.4 74.4L91.3-66.3 65.1-91.4zm-207.2 0 38.5-58.5-26.2 25.1zm210 68.3L112.9 0 103-34.7zm-212.8 0 3.4-70.1-9.9 34.7zm43.3 52.9L-107 33.5l15.6 32.9zM91.4 66.4 107 33.5 63.1 88.3zm-56.5 41 29.8-20.3L-1 112zM1 112l-65.7-24.9 29.8 20.3zM-.8-109.2 43-58.7l23.5-32.2zm-65.7 18.3 23.6 32.2L.8-109.2zM42.2-59.3l61.7 26.1-38.2-58.3zM-65.7-91.5l-38.2 58.4 61.7-26.2zM68.7 22.4 106.9 35l-3.5-69.7zm-172.1-57.1-3.5 69.7 38.2-12.6zM69 21.5l-5.5 67 43.7-54.4zm-132.5 67-5.5-67-38.2 12.7zM-.5 72v40.5l65.3-25zm1 40.5V72l-65.3 15.5zM0-109.4l-43.7 50.3h87.4zm42.3 49.2 27.1 83.3L103.9-34zm-84.6 0L-103.9-34l34.5 57.1zM69.9 21.4-.9 72.8l65.2 15.4zM-64.3 88.2.9 72.8l-70.8-51.4zm20.6-148.1L0 .3l43.7-60.2zM-.8-.3l70.9 23.1L43-60.4zm-42.3-60.1-27 83.2L.8-.3zM-.5-1.2l.1 74.6L70.4 22zm.9 74.6L.5-1.2-70.4 22z" style="fill:none;stroke:rgb(79,156,255);stroke-opacity:1;stroke-width:1;stroke-linecap:round;stroke-linejoin:round"/></g><g opacity="0"><animate attributeName="opacity" calcMode="discrete" repeatCount="indefinite" dur="3.000s" keyTimes="0.0000;0.0278;0.0556;0.0833;0.1111;0.1389;0.1667;0.1944;0.2222;0.2500;0.2778;0.3056;0.3333;0.3611;0.3889;0.4167;0.4444;0.4722;0.5000;0.5278;0.5556;0.5833;0.6111;0.6389;0.6667;0.6944;0.7222;0.7500;0.7778;0.8056;0.8333;0.8611;0.8889;0.9167;0.9444;0.9722" values="0;0;0;0;0;0;0;0;0;0;0;0;0;0;0;0;0;0;0;1;0;0;0;0;0;0;0;0;0;0;0;0;0;0;0;0"/><path d="M93.2 56 113 22.9 78.5 80.5zm12.7-97L81.7-72.5 63-95.4zm-149.8-64.5-55.4 46.9 33.2-27.3zm20 216.8-21.6-16.8-41.3-18.7zm67.5-9 36.3-23.1-62.4 32.1zM-96.1 45.4l-19-35.6 29.6 67.4zM24.3-109.2l-25.3.8 65.6 14.1zM-115 11.7l17.6-36.4-1.1-35.5zM19.4 111l-65.9-16.9 21.7 17zm-64.2-216.1-22.1 19.7L1-108.5zm0 200.2-51.9-50.5 10.5 31.9zM-97.9-23.8l32.4-62.9L-99-59.4zm2 70.2-1.5-72.1-17.8 36.4zM85.3 15.8l27.7 8.6-7.6-67.1zm.2-1-6.8 65.8 34.5-57.1zM53-61.9l53 20.7-42.6-54.2zM-.9-108.7l54.7 47.3L64.2-95zM23.6 71.6l-5.7 40 62-32.1zm-4.8 39.9 5.8-40-71.1 23.1zM-66.9-86.1-30.4-55 .7-108.9zM52.9-62.8 86 16.4 105.9-42zm33.4 77.4L23.2 72.4l56.2 7.8zM-66.2-86.7l-32.1 62.6 68.6-31.6zm21 182.1-4.1-67L-97 45.2zM-98-25.6l1.4 71.7 47.7-16.8zm97.9-83.5-31.2 53.8 85.8-6.6zM-46 95.2l70.9-22.9-75.1-43.9zm16-151.7-68.4 31.6L-49.5 30zM20.6 0l66 16.1-33-79.2zm.2-.9L23.7 73l63.1-57.7zm-52.2-55.2L21.4.5l32.9-63.2zm55.9 129L21.8-1l-72.4 30.1zM-30.8-56.6l-19.5 86.4L22.1-.1z" style="fill:none;stroke:rgb(79,156,255);stroke-opacity:1;stroke-width:1;stroke-linecap:round;stroke-linejoin:round"/></g><g opacity="0"><animate attributeName="opacity" calcMode="discrete" repeatCount="indefinite" dur="3.000s" keyTimes="0.0000;0.0278;0.0556;0.0833;0.1111;0.1389;0.1667;0.1944;0.2222;0.2500;0.2778;0.3056;0.3333;0.3611;0.3889;0.4167;0.4444;0.4722;0.5000;0.5278;0.5556;0.5833;0.6111;0.6389;0.6667;0.6944;0.7222;0.7500;0.7778;0.8056;0.8333;0.8611;0.8889;0.9167;0.9444;0.9722" values="0;0;0;0;0;0;0;0;0;0;0;0;0;0;0;0;0;0;0;0;1;0;0;0;0;0;0;0;0;0;0;0;0;0;0;0"/><path d="m14.3-110.6-68.8 8.9L0-107.9zm-1-.1L-1-107.9l61.7 9.7zm-26.1 224.3-12.3-14.5-53.2-13.6zm-40.1-216.2-51.3 52 40-30.2zm89.8 210.3-63-8.8 12.3 14.5zm61.2-100 17.1 5.7L104-50.8zM-81.6 55.5l-32.1-34.2L-77 86.8zM98.2 6.7l-7.7 64.4 24.8-58.6zm-152-108.9-11.3 21.9L1-108.2zM-113.5 23l25.6-38.8-15.7-36.4zM61.8-65.4l43 16.1-45.5-50zM-24.4 99.8l-57.9-44.9 4.5 31.3zm70.8-31.3-11 40 56.3-38.6zM-.9-108.3l63.6 43.4-2.5-33.9zm-87.5 93.4 24.6-66.8-40.3 30.3zM61.5-66.3 98.8 8.3l5.7-58.4zm-143 122.8-6.7-73.3-25.5 39zM99 6.5 46 69.4l45.2 1.3zM36.3 108.3l11.1-40-73.6 31.2zM-65.3-81l48.7 28.8L.6-108.6zm65-27.7-17.2 56.4 80.6-13.2zm-24.5 208.9-2.4-66.7-55.5 22.1zM-64.6-81.6-89-15.2l73-37.7zm-24.2 64.9 6.5 73.1 55.6-22.1zM41-1.7l58.4 9.6-37.2-74.5zm-66.7 101.8L47.7 69l-75.8-35.5zM41.1-2.6l5.4 72.5L99.5 7zm-57.5-51-72.8 37.7L-27.3 35zm-1.4.4L41.9-1.3l21-65zM47.3 69.7 42-2.8l-70.5 37zM-17.2-53.7l-10.9 88.6L42.4-2z" style="fill:none;stroke:rgb(79,156,255);stroke-opacity:1;stroke-width:1;stroke-linecap:round;stroke-linejoin:round"/></g><g opacity="0"><animate attributeName="opacity" calcMode="discrete" repeatCount="indefinite" dur="3.000s" keyTimes="0.0000;0.0278;0.0556;0.0833;0.1111;0.1389;0.1667;0.1944;0.2222;0.2500;0.2778;0.3056;0.3333;0.3611;0.3889;0.4167;0.4444;0.4722;0.5000;0.5278;0.5556;0.5833;0.6111;0.6389;0.6667;0.6944;0.7222;0.7500;0.7778;0.8056;0.8333;0.8611;0.8889;0.9167;0.9444;0.9722" values="0;0;0;0;0;0;0;0;0;0;0;0;0;0;0;0;0;0;0;0;0;1;0;0;0;0;0;0;0;0;0;0;0;0;0;0"/><path d="m2.7-111.7-64.8 13.8 62.4-9.3zM107-1.6l6.8 4.2-14.2-61.3zM1.7-111.7l-2.4 4.6 55.9 5.2zM-107.6 34.8l2.3-78.3-6.8 41.7zM107-2.6l-8.2 63.2 15-59zM-1.5 114.5l-1.8-13.3-63.5-6.8zm54.2-12.2-57-1.1 1.9 13.2zM68.3-69.6l32.4 12.5-47.1-45.7zM-60.8-98.9l-45.3 57 46-33.7zM66.9 62.9l-15.7 40.3 48.6-44zm1-133.4L107.7-.9 100.2-58zm-129.5-28 .7 23.4L.9-107.9zm-1.8 162.8-44.9-31.2 42.8 62.4zM-.9-107.8l70.1 38.6-14.7-33.2zM107.7-2.7 66.4 63.8l33-3.8zm-215.6 37.4 33-42.2-30.8-35.9zM-2.8 102l-61.5-38.2-2 31.2zm54.9.9 15.7-40.3-72.5 39.3zM-75.3-6.6l15.3-70-46.1 34zm11.9 71.9L-75.3-8.4l-33 42.3zM59.4-5.3l48.7 3.9-39.7-69.4zm-59.8-103L-3-50.5l72.5-19.3zm-61 32.5 59.3 25.4 2.6-57.9zM59.4-6.3 67 64.2l41.2-66.4zM-4.2 102.4l72.3-39.2-72.7-26.9zm.9.1-.3-66.3-61.1 28.3zm-57.5-179L-76.1-6.7l74.5-44.4zm57.4 25.3L60.3-4.9l8.8-65.6zm-72.7 43 11.9 73.5 61-28.3zM67.7 64 60.3-6.5-5 37.1zM-2.1-51.8-76.4-7.5l72.7 45.2zm-.8-.1-1.6 89.6L60.8-5.7z" style="fill:none;stroke:rgb(79,156,255);stroke-opacity:1;stroke-width:1;stroke-linecap:round;stroke-linejoin:round"/></g><g opacity="0"><animate attributeName="opacity" calcMode="discrete" repeatCount="indefinite" dur="3.000s" keyTimes="0.0000;0.0278;0.0556;0.0833;0.1111;0.1389;0.1667;0.1944;0.2222;0.2500;0.2778;0.3056;0.3333;0.3611;0.3889;0.4167;0.4444;0.4722;0.5000;0.5278;0.5556;0.5833;0.6111;0.6389;0.6667;0.6944;0.7222;0.7500;0.7778;0.8056;0.8333;0.8611;0.8889;0.9167;0.9444;0.9722" values="0;0;0;0;0;0;0;0;0;0;0;0;0;0;0;0;0;0;0;0;0;0;1;0;0;0;0;0;0;0;0;0;0;0;0;0"/><path d="m-97.9 45.3-17.1-37L-91.1 65zm87.5-156.7L0-107l48.3 1.7zm-56.3 17-33.4 47.6-4.3 14.5zm57.3-17.1-58.8 18.2L.9-107zm81.8 37.1 21.4 9.8L46.6-106zM-50.8 102.8l-47.7-58.4 6.9 19.8zM66.3 95l-48.6 6-8.8 12.7zm17.9-39.9-19.4 41 39.5-48.2zM9.8 113.7l8.9-12.8-71.2 1.1zm62-188.9 40.8 64.5-19.3-54.7zm40.7 62.6L83.8 56.1l20.2-7.4zM-97.7 46.2l-6.3-80.4-10.9 43.4zM-1-107.4 73.3-74l-25.8-31.7zm66.6 203L85 54.7l-68 47zm-132.8-190-37.5 61.9 50.9-38.2zm-.8.5 13.4 23.8L.9-107.5zm25.7 165.2-56.5-26.6 47.5 58.2zm61.1 30.2-62-30.7-9 31.7zm56.3-112 37.9-.7-40.7-64.3zm-.1-1 9.3 67.9 28.6-68.5zM-98.3 46.2-58.7-.2-104.5-34zm97.7-154 12.3 58.1 61.8-24.8zM-59.1.7l5.1-72.3-50.8 38.4zm76.6 101.4 67.8-46.8-66.2-18.7zM-55.4-70.7l68 20.9L.3-107.9zm13.1 142.9L-59.2-.9l-39.6 46.4zM18.3 102 20 36.5l-63.8 35zM11.1-50.5l65 40.2-3.1-65zM85 56l-9.1-67.9-57.2 49.4zM-54.9-71.5l-5 72.2 72.8-51.3zM-60-.8l16.8 73 63.7-35zm71.6-50.4 7.7 89.3 57.1-49.2zm.8 0L-60.3 0l80.4 38z" style="fill:none;stroke:rgb(79,156,255);stroke-opacity:1;stroke-width:1;stroke-linecap:round;stroke-linejoin:round"/></g><g opacity="0"><animate attributeName="opacity" calcMode="discrete" repeatCount="indefinite" dur="3.000s" keyTimes="0.0000;0.0278;0.0556;0.0833;0.1111;0.1389;0.1667;0.1944;0.2222;0.2500;0.2778;0.3056;0.3333;0.3611;0.3889;0.4167;0.4444;0.4722;0.5000;0.5278;0.5556;0.5833;0.6111;0.6389;0.6667;0.6944;0.7222;0.7500;0.7778;0.8056;0.8333;0.8611;0.8889;0.9167;0.9444;0.9722" values="0;0;0;0;0;0;0;0;0;0;0;0;0;0;0;0;0;0;0;0;0;0;0;1;0;0;0;0;0;0;0;0;0;0;0;0"/><path d="m74.1-79.5 10.6 8-46.2-37.4zM97.8 45.8 75.6 87.5l29.6-51.3zM-21.7-110.5 0-106.6l40.3-1.6zm95.1 30.2 40.4 59.5-29.7-51.4zm3.7 166.6L38.5 98.1 20 111.5zm36.3-108.9L97.5 46.7l7.4-9.6zm-134.2-88.1-51.7 22.6L1-106.8zm-86.8 71.8-6.2 60.8 15.1-45.5zM-84 55.9l-30.1-35.8 27.6 55.2zm104.9 55.4 18.6-13.4-75.5 9.9zm-92-200.6L-108-38l9 15.3zm36.8 197.7-50.3-53.2-2.5 19.4zM-1-106.9l76 27.8-35.6-29.5zM76.4 86.9l22.1-41.8-60.8 53.6zm-160.3-30L-99-24.6-114 21zM87.6-17.2l26.4-4.1-40.3-59.2zm-.1-1 10.4 65 15.9-69zm-160-70.5 26.1 23.2L.9-107.2zm112 187.1-59.6-23-15.6 32.9zM-71.8-89.3l-27.9 66.5 54-43.3zm52.6 165.1-66-20.3 50.3 53.1zM-.7-107.4l26.6 57.2L75-79.6zM38.2 99.1l60.6-53.5-57-11.2zm-13-150L88.6-17 74.4-80.3zm73.3 97.3-10.2-65-46.8 53.9zM-84.6 56.9l44.8-51.1-59.8-30.1zm37.3-122.8 74.1 15.5L.2-107.5zM39 98.9l3.7-64.7-63.4 42zM-40.1 6.7l-6-73.6-53.8 43.4zm20.9 70L-40.4 5.1l-44.7 51.2zM25.5-51.7 42 35.9l46.8-53.8zm-72.4-15 6 73.5 67.8-58zm5.7 72 21.1 71.5 63.3-41.9zm67.6-57L-41.4 6.1l84.2 29.6z" style="fill:none;stroke:rgb(79,156,255);stroke-opacity:1;stroke-width:1;stroke-linecap:round;stroke-linejoin:round"/></g><g opacity="0"><animate attributeName="opacity" calcMode="discrete" repeatCount="indefinite" dur="3.000s" keyTimes="0.0000;0.0278;0.0556;0.0833;0.1111;0.1389;0.1667;0.1944;0.2222;0.2500;0.2778;0.3056;0.3333;0.3611;0.3889;0.4167;0.4444;0.4722;0.5000;0.5278;0.5556;0.5833;0.6111;0.6389;0.6667;0.6944;0.7222;0.7500;0.7778;0.8056;0.8333;0.8611;0.8889;0.9167;0.9444;0.9722" values="0;0;0;0;0;0;0;0;0;0;0;0;0;0;0;0;0;0;0;0;0;0;0;0;1;0;0;0;0;0;0;0;0;0;0;0"/><path d="m-82.1-75.1-30.5 47.8 39.3-56.2zm49.5-33.8L0-106.2l31.3-4.5zm63.8 216.6 27.1-15.4-76.3 19.2zm53-30.6L108 34.2 56.6 93.3zM-31.7-109.2l-43.1 26.8 75.8-24zm30.7 2.8 75.3 22.1L30.4-111zm97.4 80.6L107.5 36l3.8-68.3zm.3 1 14.9-6.6-38.7-54.1zm-163 90.2-43-33.1 30.6 52.9zm50.1 46.5-50.9-47.2-12.3 19.9zm-96.3-140.8 3.7 62.9 18.9-48.2zm39-54.8L-112.7-28l22.5 14.7zM58.3 92.7 3.9 77.3l-21.7 34.6zm-1.3.8 51.2-58.8-45.8-4.9zM-66.4 66.3l-24-81.3-18.8 48.2zm-8.4-149.2 38.3 21.6L.8-106.9zm74-24 39.8 55 35.2-33zM108 35.6l-10.9-62-35 57.2zM4.9 77.5l-72.7-12.4 50.9 47zm33.3-130 59.4 27.7-24-60.7zm-112.5-31-16.6 70.3L-35.8-62zM57.8 93.3l5.5-63.7L3.3 78zM-37.4-61.6l77.2 9.4L0-107.1zm75.9 8.3 24.2 84.6 35-57zM-67.2 66.4-19 9.9l-72.1-24.6zm72 12L-19.6 9.3l-48.2 56.5zm-24-67.6-17.1-73.5-55 48.8zm-1.2-1.3L3.9 78.6l59.8-48.4zm-16.8-72L-20 11l59.9-63.9zm76.5 9-59.9 63.9L63.5 31z" style="fill:none;stroke:rgb(79,156,255);stroke-opacity:1;stroke-width:1;stroke-linecap:round;stroke-linejoin:round"/></g><g opacity="0"><animate attributeName="opacity" calcMode="discrete" repeatCount="indefinite" dur="3.000s" keyTimes="0.0000;0.0278;0.0556;0.0833;0.1111;0.1389;0.1667;0.1944;0.2222;0.2500;0.2778;0.3056;0.3333;0.3611;0.3889;0.4167;0.4444;0.4722;0.5000;0.5278;0.5556;0.5833;0.6111;0.6389;0.6667;0.6944;0.7222;0.7500;0.7778;0.8056;0.8333;0.8611;0.8889;0.9167;0.9444;0.9722" values="0;0;0;0;0;0;0;0;0;0;0;0;0;0;0;0;0;0;0;0;0;0;0;0;0;1;0;0;0;0;0;0;0;0;0;0"/><path d="m2.7 112.8-71.3-19.5 48.7 15.3zm86.2-46.3 24.5-43.9-40.5 63.1zM-92.2-67.8l18.2-8.7 33-30.6zm-7.4 112.7-5.6-4.8 38.1 54.3zm56.8-151.3 42.8.7 21.6-7zm83.1 209.1 34.1-18.3L.8 112.9zM-99.2 45.8l-14.3-64.2 8.7 59.4zM102-34l11.1 58.5-7.6-66.6zm.4 1 3.4-8.2L70-90.6zm-194-35.5-22.2 51.9 40.5-60.7zM-1-105.9l72.5 16.5-50.9-23.4zm-40.9-.9-33 30.7 75.9-30zM2.6 113.1l-49.1-40.8-22 21.5zm70.6-27.3 40.5-62.7-33.6.1zM-45.7 72.9l-54.7-28.6 32.6 50.1zM113.5 24l-11.1-58.9-22.6 59zm-39 60.8-46.8-8.5L.9 113.2zM-113.9-18.1l14.1 64 22.3-51.2zm40.1-59.5-40.3 60.4 36.4 12.9zM49.7-55.2 103-33.3 70.6-90.6zM-.8-106.4l51.4 51.7 20.7-35.4zM28.6 76.4l-76-3.7 49.2 40.6zM-75-76.6l50 18.8L.7-106.5zm148.9 162 7-62.6L27 77zM-45.9 73.7-78.2-5.9l-22.1 51.1zM49.8-56.1l30.7 80.7L103-34.2zM-74.5-77.3l-4.1 73.2 54.2-54.5zM-26-58l77.3 2.9-51.4-51.6zM28.5 77.2 2.1 11.4l-49.4 62zM1.3 11.7l26.4 65.9 53.6-54.2zm-47.9 62.2 49.4-62-81.7-17.5zM50.6-56.3 1.2 12.6l80 11.6zm-48 69.1-27.7-72L-79-4.7zm-28.5-71.7 27.8 72 49.3-68.9z" style="fill:none;stroke:rgb(79,156,255);stroke-opacity:1;stroke-width:1;stroke-linecap:round;stroke-linejoin:round"/></g><g opacity="0"><animate attributeName="opacity" calcMode="discrete" repeatCount="indefinite" dur="3.000s" keyTimes="0.0000;0.0278;0.0556;0.0833;0.1111;0.1389;0.1667;0.1944;0.2222;0.2500;0.2778;0.3056;0.3333;0.3611;0.3889;0.4167;0.4444;0.4722;0.5000;0.5278;0.5556;0.5833;0.6111;0.6389;0.6667;0.6944;0.7222;0.7500;0.7778;0.8056;0.8333;0.8611;0.8889;0.9167;0.9444;0.9722" values="0;0;0;0;0;0;0;0;0;0;0;0;0;0;0;0;0;0;0;0;0;0;0;0;0;0;1;0;0;0;0;0;0;0;0;0"/><path d="m47.9 96.7 39.4-21.9-67.9 37.1zm-26.6 14.8-76.2-10.1 44.8 8.9zm-73.4-214.7 52.2-2 11.2-8.9zm51.2-2 67.6 10.8-56.3-19.7zm-98.3 45.3L-71.6-70l21.1-34zM-86.5 56l-16.3-3.9 49.5 50.2zM86.2 76.2l29.1-65.1-21.1 3.7zM-86 56.8l-25.3-63.9 8.9 60.1zm201.1-44.7-10.9-55.8L94 15.8zM-98.8-60.7l-12.6 55.5 40.3-65.7zm47.4-43-21.1 34.1L.9-105.7zM87.4 75.1l-37.5-2.7L19.5 112zm-28-134L105-42.2 65.6-95.5zM21.2 111.7l-45-34.2-31 24.3zM-.9-105.9l61.1 47.5 6.1-36.7zM-22.9 78l-64.6-22.3 33.5 46.5zm109.8-2.2L95 14.3 49.3 73.2zM59.2-59.9l35.5 76L104.8-43zM50.9 72.4l-75.6 5.4 45.1 34.3zM-111.7-6.7l25 63.9 24.8-54.5zm40.1-64.5-40.2 65.4L-62 3.7zm-1.2 1 60.3 15 13.1-51zm59.3 14.9L60.8-59-.3-106.3zm-9.6 134L-62.6 2.2l-24.8 54.3zm46-67.1 27.1 62 45.4-58.8zm-95.3-82.5 9.6 74.8 50.7-60zM59.9-60.1l-37 72.6 72.4 3.1zM50.8 73.2l-27.1-62-48.3 67.4zM-23.9 79l48.3-67.3-87.7-9.1zm10.3-135.2L23.6 13l37-72.7zm38 68.8-37.2-69.2-50.6 60z" style="fill:none;stroke:rgb(79,156,255);stroke-opacity:1;stroke-width:1;stroke-linecap:round;stroke-linejoin:round"/></g><g opacity="0"><animate attributeName="opacity" calcMode="discrete" repeatCount="indefinite" dur="3.000s" keyTimes="0.0000;0.0278;0.0556;0.0833;0.1111;0.1389;0.1667;0.1944;0.2222;0.2500;0.2778;0.3056;0.3333;0.3611;0.3889;0.4167;0.4444;0.4722;0.5000;0.5278;0.5556;0.5833;0.6111;0.6389;0.6667;0.6944;0.7222;0.7500;0.7778;0.8056;0.8333;0.8611;0.8889;0.9167;0.9444;0.9722" values="0;0;0;0;0;0;0;0;0;0;0;0;0;0;0;0;0;0;0;0;0;0;0;0;0;0;0;1;0;0;0;0;0;0;0;0"/><path d="M38.9 107.7h-77.8l38.9 3zm56.8-42.3L113.2-.8l-8.7 6zm-191.4 0-8.8-60.2-8.7-6zM-60.2-99l60.7-5.6v-10.2zm59.7-5.6L60.2-99-.5-114.8zM-104.4 6.2l1.6-58.7L-113.2.2zm217.6-6-10.4-52.7 1.6 58.7zM-103.7-51l36.9-12.5 8-36.6zM66.8-63.5 103.7-51l-44.9-49.1zM-69.8 65.9l-27-1.8 59.6 44.3zm166.6-1.8-27 1.8-32.6 42.5zm-166 2.6-35.9-62.2 8.7 60.4zm165.6-1.8 8.7-60.4-35.9 62.2zM-.9-105.3l68.6 42.2-8.1-36.5zm-58.8 5.7-8 36.5L.9-105.3zM38.8 108 0 79.8-38.8 108zM-103.3-51.9l-1.8 58.3 38.7-70.8zM66.4-64.4l38.7 70.8-1.8-58.3zm4.3 130.1L-.9 80.2 38 108.4zM.9 80.2l-71.7-14.5 32.8 42.7zM-105.5 5l35.6 62.1 26.5-57.8zM43.4 9.3l26.5 57.8L105.5 5zM-68.1-63.6l68.6 10-.1-52.2zm67.6 10 68.6-10-68.5-42.2zM-67-64.7l-38.5 70.5 62 4.4zm134 0L43.5 10.2l62-4.4zM.8 80.9l-45-72.1-26.4 57.8zm69.9-14.3L44.2 8.8l-45 72.1zm-138.5-131 23.6 75 45-65.1zm67 9.9 45.1 65.1 23.5-75zM0 81.3l44.9-72h-89.8zm44.9-71.2L0-55l-44.9 65.1z" style="fill:none;stroke:rgb(79,156,255);stroke-opacity:1;stroke-width:1;stroke-linecap:round;stroke-linejoin:round"/></g><g opacity="0"><animate attributeName="opacity" calcMode="discrete" repeatCount="indefinite" dur="3.000s" keyTimes="0.0000;0.0278;0.0556;0.0833;0.1111;0.1389;0.1667;0.1944;0.2222;0.2500;0.2778;0.3056;0.3333;0.3611;0.3889;0.4167;0.4444;0.4722;0.5000;0.5278;0.5556;0.5833;0.6111;0.6389;0.6667;0.6944;0.7222;0.7500;0.7778;0.8056;0.8333;0.8611;0.8889;0.9167;0.9444;0.9722" values="0;0;0;0;0;0;0;0;0;0;0;0;0;0;0;0;0;0;0;0;0;0;0;0;0;0;0;0;1;0;0;0;0;0;0;0"/><path d="m54.7 101.7-75.9 10.2 31.3-2.2zM-.1-104.2l52.4 1-63.6-11.2zm-66.8 10.1L.9-104.3l-11.3-10.1zM102.7 52.2l-16.3 5-33.3 45.4zM71.8-68.7l27.6 9-48.7-44.4zM-86 76.7l-8.1-60.4-21.1-4.9zm188.2-23.6 9.1-59.2-25.4 64.2zM-94 17.3l-10.3-60.2-10.8 55.2zM71.2-69.6l40.2 65.4L99-60.5zM-.9-104.8l73.6 36.5-21.2-35.4zM-49.8 73.9l-37.4 1.7 67.7 36.8zM54.6 102 23.8 79.1l-44.9 33zM-105.1-41.3l45.6-15.9-6.3-38zm38.6-53.5 6.2 38.1L.9-105zM87.3 56.9 22.9 79.6l30.9 22.9zM-49.2 74.7l-45.7-58.9 8.2 60.5zm-55.7-116.9 10.2 59.9 35.4-75.9zM24.7 79.5l-75.5-5.6 30.5 38.6zM61.9 4.8l24.7 53.6 25.1-64.1zm9.9-74.7L62 5.8l49.8-10.6zM12.6-53.1l60.3-15.8-73.5-36.4zM87.2 57.7 62.6 4.3l-39.5 76zm-148.1-115 74.5 4.1L.3-105.4zm-34.4 73.6 45.4 58.9 27-61.2zM-60-58.4l-35.3 75.6 72.4-2.3zM12.1-54 62.8 6l9.7-75.6zM24.5 80.2l-48.2-66.6-27 61.1zm-.7.4L63.3 4.7l-87.7 9.4zM-60.7-58l37.1 73.3 37.3-69.4zM63.4 5.5l-50.6-60-37.1 69.4z" style="fill:none;stroke:rgb(79,156,255);stroke-opacity:1;stroke-width:1;stroke-linecap:round;stroke-linejoin:round"/></g><g opacity="0"><animate attributeName="opacity" calcMode="discrete" repeatCount="indefinite" dur="3.000s" keyTimes="0.0000;0.0278;0.0556;0.0833;0.1111;0.1389;0.1667;0.1944;0.2222;0.2500;0.2778;0.3056;0.3333;0.3611;0.3889;0.4167;0.4444;0.4722;0.5000;0.5278;0.5556;0.5833;0.6111;0.6389;0.6667;0.6944;0.7222;0.7500;0.7778;0.8056;0.8333;0.8611;0.8889;0.9167;0.9444;0.9722" values="0;0;0;0;0;0;0;0;0;0;0;0;0;0;0;0;0;0;0;0;0;0;0;0;0;0;0;0;0;1;0;0;0;0;0;0"/><path d="m-72.5 87-40.8-63.3 24.8 42.2zm177.3-47.2-5.4 7.1-32.7 47.9zm-105.5 74L-74 85.7l34 15.9zm75-188.2 18.3 6.6-51.2-39.7zm30.1 115.1 9.3-57.8L99 47.8zM0-103.9l43.1-2.9-64.8-6.4zm-105.7 61.7-7.2 67.7 10.6-57.2zm-.4.9 3.5 10.5 32.2-58.8zM73.7-75.2l40.3 60-22-53.4zM-71.9-88.4 1-104l-21.8-9.3zM-1-104.3 75.3-74l-33.1-33.2zM68.1 94.2 46.3 75.5l-48.9 38.4zm-140.9-7.1-7.1-60.4-33.6-2.6zm172.9-40.8L45.4 76l22 18.7zM-27.5 79.5-74.1 86l73.2 28zm-52.2-51.8-22.9-60.3-10.7 57.6zM77.5-1.5l22 49.4 14.6-64.7zm-3.4-74 3.7 75 36.4-15.4zm-177.3 44.4 53.3-20.4L-71-89.6zm31.5-58 21 38.2L.8-104.6zM47.2 75.8l-75.7 3.8 26.7 34.6zm-74.1 4.5-53.9-54 7.3 60.4zM100 47.2 78.2-2.1 45.6 76.8zm-74.9-101 50.3-20.8-76.1-30.1zM-103.2-32l22.8 60.1L-50-52.4zM24.5-54.6 78.6-.4l-3.7-74.9zm-76 3.3L26.1-54l-26-50.9zM47.1 76.5-2.1 16.2l-26.3 64.3zM-81.2 26.9l53.7 53.9 26.2-64.3zm127.6 50L78.9-1.8-2.8 16.7zM-50.7-52.6-81 27.7l79.8-10.3zM79-1 25.2-55.2-2.6 17.6zM-51.4-52.1l49.5 70L26-54.9z" style="fill:none;stroke:rgb(79,156,255);stroke-opacity:1;stroke-width:1;stroke-linecap:round;stroke-linejoin:round"/></g><g opacity="0"><animate attributeName="opacity" calcMode="discrete" repeatCount="indefinite" dur="3.000s" keyTimes="0.0000;0.0278;0.0556;0.0833;0.1111;0.1389;0.1667;0.1944;0.2222;0.2500;0.2778;0.3056;0.3333;0.3611;0.3889;0.4167;0.4444;0.4722;0.5000;0.5278;0.5556;0.5833;0.6111;0.6389;0.6667;0.6944;0.7222;0.7500;0.7778;0.8056;0.8333;0.8611;0.8889;0.9167;0.9444;0.9722" values="0;0;0;0;0;0;0;0;0;0;0;0;0;0;0;0;0;0;0;0;0;0;0;0;0;0;0;0;0;0;1;0;0;0;0;0"/><path d="m74.5-80.3 9 5-52.4-35zm-.7-.7 39.1 54.8L82.8-76zm-56 193.8-75.6-18.2 26.9 11.6zM0-103.4l32.9-6.4-64.5-1.4zm-56.1 199-51.5-59 24.1 40zM-1-103.7l76.4 23.8L32-110.1zM108.9 34.5 65.8 69.7l12.3 15.7zM78.8 84.8 66.6 69 16 113.1zM-111.6-31.6l4.5 70 10.4-59.9zm36.7-50.5L1-103.6l-31.7-7.9zm-37 51.4 15 10.2 23.4-62.9zM90-9.2l18.4 45.4 4.4-64zm-15.9-72L90.3-8.3 113-26.9zm-78 163.5-53.9 12.6 75.4 18.2zm-52.5 13.5-5.8-60-45.7 1.2zm165.3-60.4L90.5-10 66 70.5zM67.4 69.3-4.9 82.5l21.7 30.8zM-61.9 36.7l-35.5-58.9-10.2 60.1zm98.6-92.2 38.7-25-76.2-23.7zM-74.8-82.7l35.6 36.9 40-58.4zm-23 62.1 59.4-25.9-35.8-36.8zM36-56.3l55.1 48-16.3-72.8zM-3.2 83l-59.9-47.5 5.8 60.1zM-40-46.1l77.6-9.8L0-104.4zm-57.9 24.6 35.4 58.7 23.9-84.5zM66.7 70.6 91.2-9.8 18.9 17zm.6-.6L19.6 16.4l-24.4 67zM91.4-8.9 36.5-57 19.2 17.9zm-154.9 45 59.6 47.5 24.3-67zm24.1-83.6-23.9 84.4 83.9-19.4zm-.7.6 60.1 65 17.4-74.9z" style="fill:none;stroke:rgb(79,156,255);stroke-opacity:1;stroke-width:1;stroke-linecap:round;stroke-linejoin:round"/></g><g opacity="0"><animate attributeName="opacity" calcMode="discrete" repeatCount="indefinite" dur="3.000s" keyTimes="0.0000;0.0278;0.0556;0.0833;0.1111;0.1389;0.1667;0.1944;0.2222;0.2500;0.2778;0.3056;0.3333;0.3611;0.3889;0.4167;0.4444;0.4722;0.5000;0.5278;0.5556;0.5833;0.6111;0.6389;0.6667;0.6944;0.7222;0.7500;0.7778;0.8056;0.8333;0.8611;0.8889;0.9167;0.9444;0.9722" values="0;0;0;0;0;0;0;0;0;0;0;0;0;0;0;0;0;0;0;0;0;0;0;0;0;0;0;0;0;0;0;1;0;0;0;0"/><path d="m-38 101.6-38.2-15.3 56.6 23.4zm-75.7-122 9.4 56.8 7.3 14.5zm28.1-52.3 10.8-2.8 35.7-33.6zm121.1 182-74.5-7.9 18.4 8.1zM-85-73.5l-29.1 55 40-57.8zm85-29.4 22-9.2-62.9 3.6zM113.8 22 83.3 60.9 85.6 75zM99-18.1l14.4 42-5.3-62.5zM86.3 74.2l-2.3-14-50.2 49.7zM-.9-103.1l74.3 17.3L21-112.3zm-36.3 205.3-60.7-53 22.4 37.7zM71.9-87l27.5 69.8 9.1-20.5zM-75.7-75.2l76.7-28-41-5.6zM113.7 23 99.3-19.1l-16 81zm-227.8-43 16.8 70.9 9.7-62.2zm-.2.9 26.5 8.7 13.3-66.2zM19.9 82-39 101.8l74.3 7.9zm64.6-21.5L18.9 82.3 34.4 110zM46.8-58.4l26.4-28-74.1-17.2zm-.7-.6 53.8 41.7L72.6-87zm-83.7 161.5-4-59.6-56.6 6.8zM-75.8-75.8-26-41.7.7-103.8zm34.6 119.5-47.2-55.6-9.5 62.4zM83.9 61.9l16-80.7-60.2 33.7zM20.5 82.7l-63-40 4 59.6zm-109.2-93 63.3-32.1-49.8-34.1zM84.5 61.2l-44.2-47-21.3 69zM-26.9-41.9l74.6-16.9-47.9-45.1zM100.2-18 46.4-59.9 40 15.8zM-89-11.2l47.2 55.5 16.1-87.5zm46 54.5 62.9 40 21.2-68.9zm15.9-86 67.9 58.6 6.5-75.6zm.6-.6-16.1 87.4 83.9-28.9z" style="fill:none;stroke:rgb(79,156,255);stroke-opacity:1;stroke-width:1;stroke-linecap:round;stroke-linejoin:round"/></g><g opacity="0"><animate attributeName="opacity" calcMode="discrete" repeatCount="indefinite" dur="3.000s" keyTimes="0.0000;0.0278;0.0556;0.0833;0.1111;0.1389;0.1667;0.1944;0.2222;0.2500;0.2778;0.3056;0.3333;0.3611;0.3889;0.4167;0.4444;0.4722;0.5000;0.5278;0.5556;0.5833;0.6111;0.6389;0.6667;0.6944;0.7222;0.7500;0.7778;0.8056;0.8333;0.8611;0.8889;0.9167;0.9444;0.9722" values="0;0;0;0;0;0;0;0;0;0;0;0;0;0;0;0;0;0;0;0;0;0;0;0;0;0;0;0;0;0;0;0;1;0;0;0"/><path d="m104.5-27.8 10.1 39.1-14-60zm-122 133.5-47.7-10 56.7 15.8zM90.6 62.9l7.2-13.3L50 104.3zm-38.9 40.6-70.2 2.1 9 5.8zm-155.2-55.6 39.8 48.9-19.7-35.3zM67.7-92.6l37.2 65.7-3.9-20.9zM.2-102.2l10.3-11.5-59.7 8.8zm-95.1 37.3 21.7-3.4 25.7-37.4zm94.1-37.5 70 10.9-59.7-22.3zM-112.6-8.2l9.5 57L-83 62.3zm227.3 18.5-10.2-39.1L97 51.4zm-209.1-76-18.4 59.3 40.2-62.7zm77.7 171.9-67.6-45.3 19.8 35.4zM-74.1-68 1-102.8l-49.4-2.6zM98 49.8 41.8 79.1l8.7 25.3zM42.7 78.6-18.5 106l69.8-2zM54.4-62.7l50.8 35.6-37-65.5zm.9.6 13.7-30L-.9-103zM-113.1-7.8l29.6 70.4 8.4-64.4zm0 .9 37.9 6.1 2.1-68.7zM97.5 51.3l7.5-79.9-46.4 39.1zm-114.6 55.3-1.9-59-65.5 13.8zM98 50.6 59.1 9.7 41.8 80zM-74.3-68.6l62.5 29.8L.5-103.3zM43.3 79.3l-63.2-31.9 1.9 59.1zm62-107.2L54.6-63.6l4.4 75zm-118-11 68.6-23.8-56.2-40.7zm-5.9 87.3L-76-2.2l-8.2 64.4zM-76.1-.7l64.9-38.9-62.6-29.7zm55.7 48.9L42.7 80 59.9 9.9zm7.4-87.8 72.8 51-4.3-74.9zM-76.5-1.5-19.1 49l7.5-89.3zm64-38.8L-20 48.9l80.2-38.3z" style="fill:none;stroke:rgb(79,156,255);stroke-opacity:1;stroke-width:1;stroke-linecap:round;stroke-linejoin:round"/></g><g opacity="0"><animate attributeName="opacity" calcMode="discrete" repeatCount="indefinite" dur="3.000s" keyTimes="0.0000;0.0278;0.0556;0.0833;0.1111;0.1389;0.1667;0.1944;0.2222;0.2500;0.2778;0.3056;0.3333;0.3611;0.3889;0.4167;0.4444;0.4722;0.5000;0.5278;0.5556;0.5833;0.6111;0.6389;0.6667;0.6944;0.7222;0.7500;0.7778;0.8056;0.8333;0.8611;0.8889;0.9167;0.9444;0.9722" values="0;0;0;0;0;0;0;0;0;0;0;0;0;0;0;0;0;0;0;0;0;0;0;0;0;0;0;0;0;0;0;0;0;1;0;0"/><path d="M65.6 95.6 3.3 106.8l-2 5.2zM-113.8 1.4-97.6 62-107 4.9zM4.3 106.8l-56-3.1 54 8.2zM-113.8 2.4l6.8 3.5 6.2-63.1zm226-4.5-6-36.8.6 78.4zM-.4-101.7l63.7 4.9-65.9-17.5zm1 0-2.2-12.6-54.7 13.8zM-98.7 60.6l48.6 44L-66 71.5zm-3.1-116.4 32.6-5.2 14.4-40.4zm209.3 93.6L62.6 73l1.7 23.7zM-107.7 4.3l9.5 57.1 32.6 10.9zM60.9-67.1 107-37.2 62-97.9zm2.5 139.5L2.7 107.5l62.4-11.3zm-58.8 35L-67 71.1l16 33.1zm-106-164-6.3 62.7 39-68zm163.2-10 1-30.8-63.7-5zm45.4 106-.7-78.2L75 4.1zM-70.1-60.7l71-41.7-56.5 1.3zm177.7 99.3L75.3 3.2 62.5 74zM107-38 60.8-68.1 75.4 5zM-108.1 4.7l42 68 6.7-66.1zM4.1 107.9l.4-58.4-71.7 22.2zM-108.1 5.6l48.7 2-9.9-69.9zm172 67.5L3.6 49.5l-.4 58.4zM-70.4-61.3 3-37.3.4-102.9zM2.1-37.2l60.1-30.1-62.7-35.6zm1.1 87.5 60.2 23.6L76.1 3.3zm1.7 0-65.2-44-6.5 66.1zM1.6-37.9 76.1 4.8 61.7-68.1zM-60.3 7.8 3.4-38.1l-73.4-24zM2.1-38.7l1.5 89.6L76.4 4.1zM-60.8 7 4.5 51 2.9-38.7z" style="fill:none;stroke:rgb(79,156,255);stroke-opacity:1;stroke-width:1;stroke-linecap:round;stroke-linejoin:round"/></g><g opacity="0"><animate attributeName="opacity" calcMode="discrete" repeatCount="indefinite" dur="3.000s" keyTimes="0.0000;0.0278;0.0556;0.0833;0.1111;0.1389;0.1667;0.1944;0.2222;0.2500;0.2778;0.3056;0.3333;0.3611;0.3889;0.4167;0.4444;0.4722;0.5000;0.5278;0.5556;0.5833;0.6111;0.6389;0.6667;0.6944;0.7222;0.7500;0.7778;0.8056;0.8333;0.8611;0.8889;0.9167;0.9444;0.9722" values="0;0;0;0;0;0;0;0;0;0;0;0;0;0;0;0;0;0;0;0;0;0;0;0;0;0;0;0;0;0;0;0;0;0;1;0"/><path d="m76.8 86.1-52.2 19.5-12.3 4.8zm-51.2 19.3-61.6 4.5 49.3.3zM-.1-101.3l55.9-.4-70.3-12zM113.1 25 80.5 64.5l-5 22.8zM-115 14.4l26 59.7-8.9-57.1zM.9-101.3l-14.5-12.4L-62-95.3zM-114.9 15.4l17.1 2.6-7.4-65zM65.3-72.2l40.1 24.9-51.1-55.3zm15.9 136-57.4 42.3 52.4-19.4zm-171.4 9 55.8 37.8-11.3-31.2zm203.1-46.1-8.1-75.6-16.7 45zM-106-45.6l43.4-8.4 1.9-42.4zM66.1-71.7l-11-30.5-56.1.4zM25.6 105.7l-72.2-26.6 11.3 31.2zm87.5-79.8L88.4-4.9l-8.1 70.4zm-211.9-9.3 9.1 57 44.5 6.6zm204-64.7L64.9-73.2 88.6-3.1zm-210.9 1.6 7.2 64.9 36.1-73.3zm42.2-7.1L.9-102l-62.4 6zm145.1 118L26.9 48.7l-2.7 57.7zm-56.5 41.9 2.7-57.7-74.7 31.2zM16.8-37l49.6-35.5-67-29.8zm9.7 86.5 54.6 15.7 8-70zM-99.2 17.1l53.5 63.5 4.7-67.3zM-64-54.2l81.7 17L.3-102.4zm80.2 16.5 73 34.4-23.4-69.9zM-99.1 17.9l58.2-3.6L-63-55.3zM28.2 49.3-42 13.1l-4.5 67.4zM16.6-38.5 27 50.1 89.4-4.1zm-58.4 53.2L17.9-38l-81.6-16.9zm-.6-.7 70.2 36-10.4-88.6z" style="fill:none;stroke:rgb(79,156,255);stroke-opacity:1;stroke-width:1;stroke-linecap:round;stroke-linejoin:round"/></g><g opacity="0"><animate attributeName="opacity" calcMode="discrete" repeatCount="indefinite" dur="3.000s" keyTimes="0.0000;0.0278;0.0556;0.0833;0.1111;0.1389;0.1667;0.1944;0.2222;0.2500;0.2778;0.3056;0.3333;0.3611;0.3889;0.4167;0.4444;0.4722;0.5000;0.5278;0.5556;0.5833;0.6111;0.6389;0.6667;0.6944;0.7222;0.7500;0.7778;0.8056;0.8333;0.8611;0.8889;0.9167;0.9444;0.9722" values="0;0;0;0;0;0;0;0;0;0;0;0;0;0;0;0;0;0;0;0;0;0;0;0;0;0;0;0;0;0;0;0;0;0;0;1"/><path d="m45.4 100.9-64.3 12.9 42.9-6.6zm-128.8-176-23.5 40.9 42.4-56.3zM0-100.9l46.9-5L-26-112zm67.4 23.2L100.9-57l-55.7-49.6zm47.3 91.5L100-58.6l-2.1 45.3zM95.5 53.2l-51.9 48.6 40.8-25.9zM1-101l-26.1-11.3-41 22.8zM114.8 12.8 97.9-14.3l-3.2 69.2zM-112.5 28-77 85.3l-8-56.8zm34.2 56.2 61 30.2-5.8-29.8zM68.3-77.3l-22.2-29.1-47.1 5.2zm32.2 19.4L66.9-78.6l31.4 66.2zm-212.8 86.8 27.5.6-21.6-65.6zm157.7 72.3-69.5-16.7 5.8 29.7zM-107.1-34.6l53.3-12.8L-65-90.7zm21.2 62.8 8.2 56.7 55 .6zM95.8 53.7l-47-8.7-4.8 57zM-54.6-46.9.8-101.5l-66.6 11.3zM-107-35.4l21.5 65.3 31.8-78.2zM48.4 45.9l47 8.7 3.1-68.9zm-3.5 55.9 4.8-57-74.2 40.4zM30.8-38.3l37.5-39.8-69-23.6zm-.7-.6 68.7 26.1-31.1-65.9zm-85.3-8.5 86.9 8.8L.1-101.9zm85.6 7.6L49 46.4l49.9-60zM-86.3 28.7l63.1 57.2 2.4-67.8zm.2.8L-20.6 19l-33.8-67.6zm136.3 16L-21.7 18-24 85.9zm-71.6-26 53.2-58.9-86.9-8.8zm-.7-.7 71.9 27.4L31.2-40z" style="fill:none;stroke:rgb(79,156,255);stroke-opacity:1;stroke-width:1;stroke-linecap:round;stroke-linejoin:round"/></g></svg>